<svg xmlns="http://www.w3.org/2000/svg"  width="20px" viewBox="0 0 24 24"><path fill="#696969" fill-rule="evenodd" d="M3,12 C3,11.4477153 3.44771525,11 4,11 C4.55228475,11 5,11.4477153 5,12 C5,13.8826787 5.74532135,15.6448163 7.05025253,16.9497475 C8.35518372,18.2546787 10.1173213,19 12,19 C15.8659932,19 19,15.8659932 19,12 C19,8.13400675 15.8659932,5 12,5 C11.0675482,5 10.162173,5.1818644 9.32086761,5.53072194 C8.81070399,5.74226751 8.2256431,5.50018975 8.01409753,4.99002613 C7.80255196,4.47986251 8.04462972,3.89480162 8.55479334,3.68325605 C9.63789587,3.23413437 10.8034866,3 12,3 C16.9705627,3 21,7.02943725 21,12 C21,16.9705627 16.9705627,21 12,21 C9.58143618,21 7.31232472,20.0402468 5.63603897,18.363961 C3.95975322,16.6876753 3,14.4185638 3,12 Z" transform="rotate(316.735 12 12)"><animateTransform attributeName="transform" attributeType="XML" type="rotate" from="0 12 12" to="360 12 12" dur="0.8s" repeatCount="indefinite"></animateTransform></path></svg>
